<svg width="32" height="32" viewBox="0 0 32 32" fill="none" xmlns="http://www.w3.org/2000/svg">
  <rect width="32" height="32" rx="4" fill="#39A845"/>
  <path d="M26 6C26 6 20 2 16 2C12 2 6 6 6 6C6 6 2 10 2 16C2 22 6 26 6 26C6 26 10 30 16 30C22 30 26 26 26 26C26 26 30 22 30 16C30 10 26 6 26 6Z" fill="white"/>
  <path d="M16 4C18 4 20 5 22 6C22 6 24 8 24 10C24 12 22 14 20 16C18 18 16 20 16 20C16 20 14 18 12 16C10 14 8 12 8 10C8 8 10 6 12 6C14 6 16 4 16 4Z" fill="#39A845"/>
  <path d="M16 8C17 8 18 9 19 10C19 10 20 11 20 12C20 13 19 14 18 15C17 16 16 17 16 17C16 17 15 16 14 15C13 14 12 13 12 12C12 11 13 10 14 10C15 10 16 8 16 8Z" fill="#2D7A35"/>
</svg>